P2
24 7
255
0 0 0 0 0 0 0 0 0 0 0 0 0 0 0 0 0 0 0 0 0 0 0 0
0 30 30 30 30 0 0 70 70 70 70 0 0 110 110 110 110 0 0 150 150 150 150 0
0 30 0 0 0 0 0 70 0 0 0 0 0 110 0 0 0 0 0 150 0 0 150 0
0 30 30 30 0 0 0 70 70 70 0 0 0 110 110 110 0 0 0 150 150 150 150 0
0 30 0 0 0 0 0 70 0 0 0 0 0 110 0 0 0 0 0 150 0 0 0 0
0 30 0 0 0 0 0 70 70 70 70 0 0 110 110 110 110 0 0 150 0 0 0 0
0 0 0 0 0 0 0 0 0 0 0 0 0 0 0 0 0 0 0 0 0 0 0 0
